<?xml version="1.0" standalone="no"?>
<!DOCTYPE svg PUBLIC "-//W3C//DTD SVG 20010904//EN"
 "http://www.w3.org/TR/2001/REC-SVG-20010904/DTD/svg10.dtd">
<svg version="1.0" xmlns="http://www.w3.org/2000/svg"
 width="483.000000pt" height="483.000000pt" viewBox="0 0 483.000000 483.000000"
 preserveAspectRatio="xMidYMid meet">
<metadata>
Created by potrace 1.14, written by Peter Selinger 2001-2017
</metadata>
<g transform="translate(0.000000,483.000000) scale(0.100000,-0.100000)"
fill="#000000" stroke="none">
<path d="M0 2415 l0 -2415 2415 0 2415 0 0 2415 0 2415 -2415 0 -2415 0 0
-2415z m2872 1664 c46 -12 100 -24 121 -26 20 -3 37 -9 37 -14 0 -5 11 -9 25
-9 14 0 25 -4 25 -10 0 -5 -18 -10 -40 -10 -22 0 -40 5 -40 10 0 6 -25 10 -55
10 -30 0 -55 5 -55 10 0 6 -50 10 -130 10 -80 0 -130 -4 -130 -10 0 -5 -20
-10 -45 -10 -25 0 -45 -4 -45 -8 0 -4 -19 -13 -43 -20 -24 -7 -55 -24 -70 -38
-14 -13 -31 -24 -38 -24 -11 0 -37 -25 -63 -61 -19 -27 -73 -49 -120 -49 -26
0 -46 -5 -49 -12 -3 -7 -6 -4 -6 7 -1 11 8 27 19 35 11 8 20 18 20 23 0 12 27
37 39 37 6 0 11 5 11 10 0 6 7 10 15 10 8 0 15 5 15 10 0 6 7 10 15 10 8 0 15
6 15 13 0 7 16 19 35 27 19 8 35 17 35 22 0 4 9 8 20 8 11 0 20 5 20 10 0 6
16 10 35 10 19 0 35 4 35 9 0 5 15 11 33 14 17 3 48 10 67 15 64 18 203 14
292 -9z m-769 -1 c-13 -6 -23 -15 -23 -20 0 -4 -11 -8 -25 -8 -14 0 -25 -4
-25 -10 0 -5 -9 -10 -20 -10 -11 0 -20 -4 -20 -10 0 -5 -7 -10 -16 -10 -21 0
-184 -164 -184 -185 0 -8 -4 -15 -10 -15 -5 0 -10 -11 -10 -25 0 -14 -4 -25
-10 -25 -5 0 -10 -16 -10 -36 0 -28 -7 -43 -27 -60 -16 -13 -31 -24 -35 -24
-4 0 -19 -12 -33 -26 -29 -29 -46 -24 -27 6 7 11 12 33 12 50 0 16 5 30 10 30
6 0 10 9 10 19 0 11 5 23 10 26 6 3 10 13 10 21 0 9 6 22 13 29 29 33 37 45
37 55 0 5 5 10 10 10 6 0 10 5 10 10 0 10 36 50 46 50 3 0 19 14 37 30 18 17
40 33 50 36 9 3 17 10 17 15 0 5 7 9 15 9 8 0 15 5 15 10 0 6 9 10 20 10 11 0
20 5 20 10 0 6 9 10 19 10 11 0 23 5 26 10 3 6 19 10 36 10 16 0 29 5 29 10 0
6 10 10 23 9 l22 0 -22 -11z m1012 -78 c3 -5 -1 -10 -9 -10 -9 0 -16 5 -16 10
0 6 4 10 9 10 6 0 13 -4 16 -10z m-465 -325 c0 -83 -4 -135 -10 -135 -6 0 -10
-43 -10 -110 0 -102 -1 -110 -19 -110 -18 0 -20 10 -24 113 -3 61 -9 132 -14
157 -8 45 -9 45 -48 43 -21 -2 -43 -7 -49 -13 -5 -5 -23 -10 -38 -10 -15 0
-28 -4 -28 -10 0 -5 -13 -10 -29 -10 -17 0 -33 -4 -36 -10 -3 -5 -15 -10 -26
-10 -10 0 -19 5 -19 10 0 6 -9 10 -20 10 -11 0 -20 5 -20 10 0 6 -7 10 -15 10
-8 0 -15 4 -15 9 0 5 -9 13 -20 16 -11 3 -20 15 -20 26 0 14 7 19 29 19 17 0
33 5 36 10 3 6 15 10 26 10 10 0 19 5 19 10 0 6 11 10 25 10 14 0 33 4 43 10
26 14 166 60 185 60 9 0 17 5 17 10 0 6 18 10 40 10 l40 0 0 -135z m540 90
c52 -9 112 -19 133 -22 20 -3 37 -9 37 -14 0 -5 14 -9 30 -9 17 0 30 -4 30
-10 0 -5 11 -10 25 -10 14 0 25 -4 25 -10 0 -5 6 -10 14 -10 16 0 110 -51 114
-62 2 -4 10 -8 18 -8 8 0 14 -4 14 -10 0 -5 7 -10 15 -10 8 0 15 -4 15 -10 0
-5 5 -10 11 -10 11 0 39 -25 39 -35 0 -8 47 -55 55 -55 10 0 35 -28 35 -39 0
-6 5 -11 10 -11 6 0 10 -7 10 -16 0 -9 8 -24 18 -33 10 -9 22 -23 25 -31 4 -8
16 -28 26 -45 11 -16 20 -38 20 -47 1 -10 6 -18 11 -18 6 0 10 -11 10 -24 0
-13 3 -26 8 -28 7 -3 55 -145 68 -203 3 -16 8 -60 11 -97 3 -38 9 -68 14 -68
5 0 9 -27 9 -60 0 -33 -4 -60 -10 -60 -5 0 -10 18 -10 40 0 22 -4 40 -10 40
-5 0 -10 15 -10 33 0 19 -9 60 -21 93 -11 32 -23 71 -26 87 -3 15 -9 27 -14
27 -5 0 -9 14 -9 30 0 17 -4 30 -10 30 -5 0 -10 9 -10 20 0 11 -4 20 -10 20
-5 0 -10 6 -10 14 0 8 -6 21 -12 28 -7 7 -20 27 -28 43 -8 17 -23 37 -32 46
-10 9 -18 22 -18 29 0 18 -206 220 -225 220 -8 0 -15 3 -15 8 0 4 -20 15 -45
25 -25 11 -45 23 -45 28 0 5 -11 9 -25 9 -14 0 -25 5 -25 10 0 6 -13 10 -30
10 -16 0 -30 4 -30 9 0 12 -77 21 -225 27 l-120 5 -37 40 c-21 21 -38 44 -38
49 0 6 -9 20 -20 32 -11 12 -20 26 -20 31 0 12 170 1 290 -18z m-1350 -145 c0
-5 -4 -10 -10 -10 -5 0 -10 5 -10 10 0 6 5 10 10 10 6 0 10 -4 10 -10z m-30
-16 c0 -3 -13 -19 -30 -34 -16 -15 -30 -31 -30 -35 0 -8 -26 -35 -35 -35 -10
0 -75 -69 -75 -80 0 -5 -4 -10 -8 -10 -11 0 -102 -85 -102 -95 0 -8 -26 -35
-35 -35 -10 0 -55 -48 -55 -60 0 -5 -4 -10 -10 -10 -5 0 -10 -18 -10 -41 0
-49 -30 -109 -55 -109 -3 0 -11 -5 -18 -10 -41 -35 -103 -80 -110 -80 -4 0
-21 -13 -39 -30 -17 -16 -40 -30 -51 -30 -21 0 -21 0 1 20 12 11 26 20 32 20
5 0 10 5 10 10 0 6 5 10 11 10 11 0 39 25 39 35 0 8 27 35 35 35 3 0 17 11 30
25 22 21 25 33 25 95 0 38 4 70 10 70 5 0 20 11 34 25 14 14 28 25 31 25 3 0
16 10 29 23 33 32 75 67 81 67 3 0 26 20 52 45 25 25 51 45 56 45 4 0 38 29
73 65 36 36 71 65 79 65 8 0 15 5 15 10 0 6 5 10 10 10 6 0 10 -3 10 -6z
m1620 -204 c0 -5 9 -10 20 -10 11 0 20 -4 20 -9 0 -5 10 -13 22 -17 25 -8 178
-161 178 -178 0 -6 9 -18 20 -26 11 -8 20 -25 20 -37 0 -13 5 -23 10 -23 6 0
10 -9 10 -20 0 -11 4 -20 9 -20 5 0 11 -12 14 -27 2 -16 14 -53 26 -83 11 -30
21 -67 21 -82 0 -16 5 -28 10 -28 6 0 10 -28 10 -64 0 -40 4 -66 12 -68 16 -6
16 -720 -1 -726 -7 -2 -11 -38 -11 -103 0 -59 -4 -99 -10 -99 -6 0 -10 -28
-10 -65 0 -37 -4 -65 -10 -65 -5 0 -10 -22 -10 -49 0 -27 -7 -65 -15 -84 -8
-20 -15 -52 -15 -72 0 -19 -5 -35 -11 -35 -8 0 -9 26 -4 88 10 116 10 820 0
950 -4 56 -11 102 -16 102 -5 0 -9 32 -9 70 0 40 -4 70 -10 70 -5 0 -10 17
-10 37 0 36 -4 52 -34 148 -9 28 -16 60 -16 73 0 12 -4 22 -10 22 -5 0 -10 14
-10 30 0 17 -4 30 -10 30 -5 0 -10 11 -10 25 0 14 -4 25 -10 25 -5 0 -10 11
-10 25 0 14 -4 25 -10 25 -5 0 -10 7 -10 16 0 18 -31 77 -42 82 -5 2 -8 10 -8
18 0 8 -4 14 -10 14 -5 0 -10 9 -10 20 0 11 -4 20 -10 20 -5 0 -10 5 -10 10 0
11 -10 25 -47 65 -27 28 -28 35 -8 35 8 0 15 -4 15 -10z m-1150 -195 c0 -9 -9
-15 -25 -15 -14 0 -25 -4 -25 -10 0 -5 -9 -10 -20 -10 -11 0 -20 -4 -20 -10 0
-5 -11 -10 -25 -10 -14 0 -25 -4 -25 -10 0 -5 -9 -10 -20 -10 -11 0 -20 -4
-20 -8 0 -9 -70 -42 -88 -42 -7 0 -12 -4 -12 -10 0 -5 -9 -10 -20 -10 -11 0
-20 -4 -20 -10 0 -5 -9 -10 -20 -10 -11 0 -20 -4 -20 -10 0 -5 -15 -10 -34
-10 -19 0 -38 5 -41 10 -9 15 -153 13 -171 -2 -8 -7 -26 -23 -39 -35 -13 -13
-27 -23 -30 -23 -3 0 -17 -11 -31 -25 -14 -14 -29 -25 -34 -25 -4 0 -27 -18
-49 -40 -22 -22 -45 -40 -51 -40 -5 0 -29 -18 -52 -40 -24 -22 -46 -40 -50
-40 -4 0 -18 -11 -32 -25 -14 -14 -28 -25 -31 -25 -5 0 -18 -11 -80 -67 -13
-13 -27 -23 -30 -23 -7 0 -13 -5 -74 -59 l-43 -38 14 -84 c12 -77 16 -85 43
-99 17 -8 32 -18 33 -22 2 -5 12 -8 23 -8 10 0 19 -4 19 -10 0 -5 9 -10 20
-10 11 0 20 -4 20 -10 0 -5 7 -10 17 -10 22 0 93 -32 93 -42 0 -4 9 -8 19 -8
11 0 23 -4 26 -10 3 -5 19 -10 36 -10 16 0 29 -4 29 -9 0 -5 10 -12 23 -16 21
-7 20 -8 -8 -12 -16 -3 -31 0 -33 6 -2 6 -28 11 -58 11 -30 0 -54 5 -54 10 0
6 -25 10 -55 10 -30 0 -55 5 -55 10 0 6 -25 10 -55 10 l-55 0 0 -35 c0 -19 5
-35 10 -35 6 0 10 -35 10 -85 0 -50 4 -85 10 -85 6 0 10 -16 10 -35 0 -21 5
-36 13 -36 62 -7 559 25 577 36 6 3 10 11 10 16 0 5 10 20 23 33 12 12 31 35
42 50 11 16 30 39 43 52 12 13 22 28 22 34 0 5 5 10 10 10 6 0 10 6 10 13 0 6
20 34 45 60 25 27 45 53 45 58 0 5 14 23 30 41 17 17 30 35 30 39 0 4 11 19
25 33 14 14 25 30 25 36 0 5 5 10 10 10 6 0 10 7 10 15 0 8 5 15 10 15 18 0
11 -35 -10 -50 -11 -8 -20 -22 -20 -32 0 -10 -4 -18 -10 -18 -5 0 -10 -4 -10
-10 0 -9 -39 -72 -60 -97 -5 -7 -10 -17 -10 -23 0 -5 -4 -10 -10 -10 -5 0 -10
-9 -10 -20 0 -11 -4 -20 -10 -20 -5 0 -10 -4 -10 -10 0 -9 -39 -72 -60 -97 -5
-7 -10 -19 -10 -28 0 -8 -4 -15 -10 -15 -5 0 -10 -5 -10 -10 0 -6 -5 -16 -10
-23 -21 -25 -60 -88 -60 -97 0 -6 -4 -10 -10 -10 -5 0 -10 -9 -10 -20 0 -20
-7 -20 -349 -20 l-349 0 -5 58 c-4 55 -17 143 -38 263 -5 30 -9 85 -9 122 0
38 -4 67 -10 67 -6 0 -10 32 -10 75 0 43 -4 75 -10 75 -5 0 -10 9 -10 19 0 11
-4 23 -10 26 -5 3 -10 15 -10 25 0 10 -7 25 -15 34 -8 8 -15 21 -15 29 0 9 -5
17 -12 19 -6 2 -8 10 -4 16 5 8 49 12 143 12 l135 0 28 30 c15 17 32 30 37 30
6 0 35 25 67 55 31 30 59 55 62 55 3 0 16 10 29 23 62 56 75 67 80 67 3 0 26
20 51 45 24 25 48 45 54 45 5 0 10 5 10 10 0 6 5 10 11 10 6 0 35 25 64 55 30
30 61 55 70 55 8 0 15 4 15 8 0 5 82 14 183 21 100 7 196 14 212 15 87 8 115
6 115 -9z m880 -156 c0 -16 5 -29 10 -29 6 0 10 -16 10 -35 0 -19 4 -35 9 -35
5 0 11 -19 14 -42 2 -24 10 -74 17 -113 22 -122 6 -323 -31 -397 -5 -10 -9
-29 -9 -43 0 -14 -4 -25 -10 -25 -5 0 -10 -9 -10 -20 0 -11 -4 -20 -10 -20 -5
0 -10 -7 -10 -15 0 -9 -11 -28 -25 -43 -14 -15 -25 -31 -25 -37 0 -6 -9 -17
-20 -25 -11 -8 -20 -18 -20 -22 0 -19 -146 -168 -165 -168 -3 0 -21 -15 -40
-32 -49 -47 -63 -58 -75 -58 -5 0 -10 -4 -10 -10 0 -5 -8 -10 -18 -10 -10 0
-24 -9 -32 -20 -8 -11 -19 -20 -25 -20 -6 0 -22 -11 -37 -25 -15 -14 -34 -25
-43 -25 -8 0 -15 -4 -15 -10 0 -5 -7 -10 -15 -10 -8 0 -15 -4 -15 -10 0 -5 -9
-10 -20 -10 -11 0 -20 -4 -20 -10 0 -5 -6 -10 -14 -10 -7 0 -19 -7 -26 -15 -7
-8 -20 -15 -29 -15 -9 0 -23 -9 -31 -20 -8 -11 -25 -20 -37 -20 -13 0 -23 -4
-23 -10 0 -5 -9 -10 -19 -10 -11 0 -21 -4 -23 -8 -4 -13 -96 -62 -113 -62 -8
0 -15 -4 -15 -10 0 -5 -7 -10 -15 -10 -8 0 -15 -3 -15 -7 0 -5 -18 -17 -40
-27 -22 -11 -40 -23 -40 -28 0 -4 -9 -8 -20 -8 -11 0 -20 -4 -20 -10 0 -5 -7
-10 -15 -10 -8 0 -15 -4 -15 -10 0 -5 -9 -10 -20 -10 -11 0 -20 -4 -20 -10 0
-5 -5 -10 -10 -10 -12 0 -94 -52 -98 -62 -2 -5 -10 -8 -18 -8 -8 0 -14 -4 -14
-10 0 -5 -7 -10 -15 -10 -9 0 -27 -10 -40 -22 -38 -36 -54 -48 -62 -48 -5 0
-15 -9 -23 -20 -8 -11 -21 -20 -28 -20 -8 0 -39 -25 -68 -55 -30 -30 -58 -55
-62 -55 -4 0 -20 -16 -37 -36 -16 -20 -49 -56 -72 -81 -24 -26 -43 -50 -43
-54 0 -5 -11 -19 -25 -33 -14 -14 -25 -32 -25 -41 0 -8 -4 -15 -10 -15 -5 0
-10 9 -10 20 0 11 5 20 10 20 6 0 10 9 10 20 0 11 5 20 10 20 6 0 10 11 10 25
0 14 5 25 10 25 6 0 10 8 10 19 0 10 7 24 15 31 8 7 15 19 15 26 0 8 5 14 10
14 6 0 10 9 10 20 0 11 5 20 10 20 6 0 10 9 10 20 0 11 3 20 8 20 4 0 18 17
32 37 14 20 35 47 48 59 12 13 22 26 22 29 0 8 157 165 165 165 3 0 21 15 40
33 47 44 63 57 72 57 5 0 15 9 23 20 8 11 18 20 23 20 11 0 111 71 115 82 2 5
12 8 23 8 10 0 19 5 19 10 0 6 5 10 10 10 10 0 19 6 53 36 7 5 27 17 45 25 17
7 32 17 32 21 0 5 9 8 20 8 11 0 20 4 20 8 0 5 16 17 35 28 19 10 35 21 35 25
0 4 14 12 30 19 17 7 30 16 30 21 0 5 10 9 21 9 12 0 29 8 38 18 9 10 31 27
49 37 17 11 32 23 32 27 0 4 8 8 18 8 10 0 24 9 32 20 8 11 19 20 25 20 6 0
28 16 48 35 20 19 42 35 47 35 6 0 10 5 10 10 0 6 5 10 11 10 6 0 35 25 64 55
30 30 57 55 60 55 8 0 35 27 35 35 0 3 10 16 23 29 12 13 31 36 42 51 11 16
26 34 33 41 6 7 12 19 12 26 0 8 9 20 20 28 11 8 20 20 20 26 0 17 33 74 43
74 4 0 7 11 7 25 0 14 5 25 10 25 6 0 10 14 10 30 0 17 5 30 10 30 6 0 10 11
10 24 0 14 4 27 9 30 5 3 11 23 14 43 3 21 10 56 15 78 10 39 18 105 29 233 5
61 23 78 23 21z m-2030 -155 c0 -3 -7 -12 -15 -21 -20 -19 -32 -10 -14 11 14
15 29 21 29 10z m2340 -301 c0 -18 5 -33 10 -33 6 0 10 -60 10 -160 0 -100 -4
-160 -10 -160 -5 0 -10 -15 -10 -34 0 -19 -4 -38 -10 -41 -5 -3 -10 -17 -10
-30 0 -13 -7 -30 -15 -39 -8 -8 -15 -22 -15 -30 0 -9 -4 -16 -10 -16 -5 0 -10
-10 -10 -23 0 -12 -9 -29 -20 -37 -11 -8 -20 -22 -20 -32 0 -10 -4 -18 -9 -18
-5 0 -12 -8 -15 -18 -4 -10 -21 -34 -39 -54 -46 -51 -77 -91 -77 -100 0 -4 -6
-8 -14 -8 -8 0 -17 -8 -20 -18 -3 -10 -16 -24 -27 -32 -12 -8 -32 -25 -45 -37
-13 -13 -26 -23 -29 -23 -3 0 -30 -25 -60 -55 -29 -30 -58 -55 -65 -55 -6 0
-35 -25 -65 -55 -29 -30 -59 -55 -65 -55 -6 0 -36 -25 -65 -55 -30 -30 -57
-55 -60 -55 -13 0 -185 -172 -185 -185 0 -3 -10 -16 -23 -28 -12 -13 -33 -45
-47 -73 -14 -27 -28 -50 -32 -52 -5 -2 -8 -17 -8 -34 0 -18 -5 -28 -12 -26
-14 5 -12 171 3 176 5 2 9 21 9 43 0 21 5 39 10 39 6 0 10 11 10 25 0 14 5 25
10 25 6 0 10 4 10 10 0 9 39 72 60 97 5 7 10 15 10 18 0 6 36 49 78 91 17 18
32 38 32 44 0 5 4 10 8 10 5 0 29 19 54 43 26 23 58 51 74 62 15 11 54 46 87
78 34 31 64 57 69 57 10 0 258 248 258 259 0 4 16 24 35 45 19 21 35 45 35 52
0 8 5 14 10 14 6 0 10 7 10 15 0 8 5 15 10 15 6 0 10 9 10 20 0 11 4 20 9 20
5 0 17 20 28 45 10 25 21 45 26 45 4 0 7 14 7 30 0 17 5 30 10 30 6 0 10 16
10 35 0 19 5 35 10 35 6 0 10 18 10 39 0 22 5 43 10 46 6 3 10 46 10 94 0 49
3 103 7 122 l6 33 18 -55 c10 -29 19 -69 19 -86z m-1330 -119 c0 -8 -5 -12
-10 -9 -6 4 -8 11 -5 16 9 14 15 11 15 -7z m-101 -581 c-26 -32 -177 -178
-205 -198 -15 -11 -38 -30 -50 -42 -13 -13 -27 -23 -31 -23 -5 0 -23 -13 -41
-29 -17 -16 -41 -32 -52 -36 -11 -3 -20 -11 -20 -16 0 -5 -7 -9 -15 -9 -8 0
-15 -4 -15 -9 0 -5 -8 -12 -19 -16 -16 -5 -31 -16 -78 -55 -7 -5 -17 -10 -23
-10 -5 0 -10 -4 -10 -10 0 -5 -7 -10 -16 -10 -9 0 -24 -8 -33 -18 -9 -9 -34
-31 -56 -47 -22 -16 -62 -51 -90 -77 -27 -26 -53 -48 -57 -48 -5 0 -8 -7 -8
-15 0 -8 -5 -15 -10 -15 -11 0 -80 -65 -80 -74 0 -3 -20 -27 -45 -53 -25 -25
-45 -51 -45 -56 0 -9 -25 -37 -34 -37 -3 0 -6 9 -6 20 0 11 5 20 10 20 6 0 10
7 10 15 0 8 5 15 10 15 6 0 10 7 10 15 0 15 6 25 38 60 6 7 12 18 12 24 0 6 5
11 10 11 6 0 10 9 10 20 0 11 4 20 8 20 4 0 15 12 24 28 9 15 30 42 47 60 17
17 31 36 31 42 0 13 104 117 155 155 22 17 49 39 60 50 12 11 38 31 58 45 20
14 37 28 37 33 0 4 9 7 20 7 11 0 20 5 20 10 0 6 7 10 15 10 8 0 15 4 15 9 0
5 14 14 30 21 17 7 30 16 30 21 0 5 11 11 25 15 14 3 25 10 25 15 0 5 9 9 20
9 11 0 20 5 20 10 0 6 9 10 20 10 11 0 20 5 20 10 0 6 7 10 15 10 8 0 15 5 15
10 0 6 5 10 10 10 6 0 28 11 50 25 22 14 46 25 55 25 8 0 15 5 15 10 0 6 7 10
15 10 9 0 25 9 37 20 28 26 57 28 37 3z"/>
</g>
</svg>
